<svg width="33" height="32" viewBox="0 0 33 32" fill="none" xmlns="http://www.w3.org/2000/svg">
<path d="M20.7056 16.3265C20.5269 16.1478 20.5269 15.8568 20.7056 15.678L29.448 6.94486C30.5181 5.87011 30.5181 4.13081 29.448 3.05606C28.3778 1.98131 26.6454 1.98131 25.5752 3.05606L16.826 11.7961C16.6473 11.9749 16.3562 11.9749 16.1775 11.7961L7.4466 3.05377C6.37185 1.9836 4.63026 1.9836 3.55551 3.05377C2.48076 4.12393 2.48076 5.85636 3.55551 6.92652L12.2956 15.6735C12.4743 15.8522 12.4743 16.1432 12.2956 16.322L3.55322 25.0551C2.48306 26.1299 2.48306 27.8692 3.55322 28.9439C4.62338 30.0187 6.35581 30.0187 7.42597 28.9439L16.1729 20.2039C16.3516 20.0251 16.6427 20.0251 16.8214 20.2039L25.5546 28.9462C26.6293 30.0164 28.3686 30.0164 29.4434 28.9462C30.5181 27.8761 30.5181 26.1436 29.4434 25.0735L20.7056 16.3265Z" fill="url(#paint0_linear_230_1254)"/>
<path opacity="0.2" d="M5.50105 2.93936C6.05332 2.93936 6.57122 3.15247 6.95849 3.53975L15.6917 12.2821C15.9071 12.4998 16.1958 12.619 16.5029 12.619C16.8077 12.619 17.0964 12.4998 17.3118 12.2844L26.061 3.54433C26.4483 3.15476 26.9639 2.94165 27.5116 2.94165C28.0593 2.94165 28.5749 3.15476 28.9622 3.54433C29.7642 4.34867 29.7642 5.65945 28.9645 6.4615L20.2198 15.1924C19.773 15.6392 19.773 16.3657 20.2198 16.8125L28.9599 25.5617C29.3494 25.949 29.5626 26.4646 29.5626 27.0123C29.5626 27.56 29.3494 28.0756 28.9599 28.4629C28.5703 28.8501 28.0524 29.0656 27.5001 29.0656C26.9479 29.0656 26.43 28.8524 26.0427 28.4652L17.3095 19.7205C17.0941 19.5028 16.8054 19.3837 16.4983 19.3837C16.1935 19.3837 15.9048 19.5028 15.6894 19.7182L6.94016 28.4583C6.55289 28.8479 6.03728 29.061 5.4896 29.061C4.94191 29.061 4.42631 28.8479 4.03903 28.4583C3.23698 27.6539 3.23698 26.3432 4.03674 25.5411L12.7791 16.8079C13.2259 16.3611 13.2259 15.6347 12.7791 15.1878L4.04132 6.44088C3.65176 6.0536 3.43864 5.538 3.43864 4.99031C3.43864 4.44263 3.65176 3.92702 4.04132 3.53975C4.43089 3.15247 4.94879 2.93936 5.50105 2.93936ZM5.50105 2.25188C4.79754 2.25188 4.09403 2.52 3.55551 3.05393C2.48076 4.1241 2.48076 5.85653 3.55551 6.92669L12.2956 15.6736C12.4743 15.8524 12.4743 16.1434 12.2956 16.3221L3.55322 25.0553C2.48306 26.1301 2.48306 27.8694 3.55322 28.9441C4.08716 29.4803 4.78838 29.7484 5.4896 29.7484C6.19082 29.7484 6.89204 29.4803 7.42597 28.9441L16.1729 20.2041C16.2623 20.1147 16.3791 20.0688 16.496 20.0688C16.6129 20.0688 16.7298 20.1147 16.8191 20.2041L25.5523 28.9464C26.0885 29.4803 26.792 29.7484 27.4978 29.7484C28.2036 29.7484 28.9049 29.4803 29.4434 28.9464C30.5181 27.8762 30.5181 26.1438 29.4434 25.0736L20.7056 16.3267C20.5269 16.148 20.5269 15.8569 20.7056 15.6782L29.448 6.94502C30.5181 5.87028 30.5181 4.13097 29.448 3.05623C28.914 2.52 28.2128 2.25188 27.5116 2.25188C26.8104 2.25188 26.1092 2.52 25.5752 3.05623L16.826 11.7963C16.7366 11.8856 16.6198 11.9315 16.5029 11.9315C16.386 11.9315 16.2691 11.8856 16.1798 11.7963L7.4466 3.05393C6.90808 2.52 6.20457 2.25188 5.50105 2.25188Z" fill="#424242"/>
<defs>
<linearGradient id="paint0_linear_230_1254" x1="16.5006" y1="2.00029" x2="16.5006" y2="29.3198" gradientUnits="userSpaceOnUse">
<stop stop-color="#FF5252"/>
<stop offset="0.4455" stop-color="#EE3030"/>
<stop offset="1" stop-color="#D50000"/>
</linearGradient>
</defs>
</svg>
