<svg width="32" height="32" viewBox="0 0 32 32" fill="none" xmlns="http://www.w3.org/2000/svg">
<path d="M16 32C8.30345 32 0 26.9911 0 16C0 5.00894 8.30345 0 16 0C20.2759 0 24.2207 1.45975 27.1448 4.12165C30.3172 7.04114 32 11.1628 32 16C32 20.8372 30.3172 24.9302 27.1448 27.8497C24.2207 30.5116 20.2483 32 16 32Z" fill="url(#paint0_radial_230_1233)"/>
<path d="M29.211 6.48873C30.6814 8.95027 31.4483 11.8812 31.4483 15.1413C31.4483 19.9785 29.7655 24.0716 26.5931 26.9911C23.6689 29.653 19.6965 31.1413 15.4483 31.1413C10.4662 31.1413 5.24136 29.0376 2.15723 24.5753C5.1255 29.6301 10.709 32 16 32C20.2483 32 24.2207 30.5116 27.1448 27.8497C30.3172 24.9302 32 20.8372 32 16C32 12.3535 31.0427 9.11342 29.211 6.48873Z" fill="#EB8F00"/>
<path d="M18.0414 26.9052C17.8841 26.9052 17.7269 26.8708 17.5834 26.8021C16.5683 26.3356 15.4124 26.327 14.3945 26.785C13.851 27.0683 13.1862 26.8394 12.9131 26.2755C12.64 25.7116 12.8607 25.0218 13.4041 24.7385C15.0234 23.9771 16.8745 23.9714 18.4993 24.7184C19.0538 24.9818 19.2993 25.6601 19.0455 26.2354C18.8662 26.6447 18.4745 26.9052 18.0414 26.9052Z" fill="#422B0D"/>
<path d="M10.3171 11.6494C12.9599 11.6579 15.0978 13.8876 15.0895 16.6297C15.0813 19.3717 12.9323 21.59 10.2895 21.5814C7.64677 21.5728 5.50884 19.3431 5.51711 16.6011C5.53367 13.8619 7.67711 11.6522 10.3171 11.6494Z" fill="white"/>
<path d="M10.2346 20.3793C12.5809 20.3793 14.4829 18.4058 14.4829 15.9714C14.4829 13.537 12.5809 11.5635 10.2346 11.5635C7.88835 11.5635 5.98633 13.537 5.98633 15.9714C5.98633 18.4058 7.88835 20.3793 10.2346 20.3793Z" fill="#422B0D"/>
<path d="M12.157 18.1636C12.4604 17.8993 12.5157 17.4496 12.2807 17.159C12.0456 16.8684 11.6091 16.8471 11.3057 17.1113C11.0023 17.3755 10.9469 17.8253 11.182 18.1159C11.4171 18.4065 11.8536 18.4278 12.157 18.1636Z" fill="white"/>
<path d="M10.3316 16.2771C11.4316 15.4276 11.7849 13.9885 11.1208 13.0628C10.4567 12.1371 9.0267 12.0753 7.92673 12.9248C6.82676 13.7743 6.47341 15.2134 7.13749 16.1391C7.80158 17.0648 9.23163 17.1266 10.3316 16.2771Z" fill="white"/>
<path d="M22.1794 11.6494C24.8222 11.6579 26.9601 13.8876 26.9518 16.6297C26.9436 19.3717 24.7946 21.59 22.1518 21.5814C19.5091 21.5728 17.3711 19.3431 17.3794 16.6011C17.396 13.8619 19.5394 11.6522 22.1794 11.6494Z" fill="white"/>
<path d="M22.0964 20.3793C24.4427 20.3793 26.3447 18.4058 26.3447 15.9714C26.3447 13.537 24.4427 11.5635 22.0964 11.5635C19.7502 11.5635 17.8481 13.537 17.8481 15.9714C17.8481 18.4058 19.7502 20.3793 22.0964 20.3793Z" fill="#422B0D"/>
<path d="M24.0408 18.1461C24.3441 17.8818 24.3995 17.4321 24.1644 17.1415C23.9294 16.8509 23.4929 16.8296 23.1895 17.0938C22.8861 17.3581 22.8307 17.8078 23.0658 18.0984C23.3009 18.389 23.7374 18.4103 24.0408 18.1461Z" fill="white"/>
<path d="M22.1968 16.2791C23.2968 15.4296 23.6502 13.9905 22.9861 13.0648C22.322 12.1391 20.8919 12.0773 19.792 12.9268C18.692 13.7763 18.3386 15.2154 19.0027 16.1411C19.6668 17.0668 21.0969 17.1286 22.1968 16.2791Z" fill="white"/>
<path d="M6.01383 9.3882C5.40693 9.50269 5.37934 10.4186 6.04141 10.4472C7.50348 10.4673 8.91589 9.90341 9.98624 8.873C10.3945 8.50663 10.7393 8.07157 11.0069 7.58498C11.1669 7.34742 11.1118 7.02112 10.8828 6.85511C10.6538 6.6891 10.3393 6.74634 10.1793 6.98391L10.1518 7.01253C9.07038 8.2662 7.61107 9.10484 6.01383 9.3882Z" fill="#422B0D"/>
<path d="M21.7657 6.98391C21.6057 6.74634 21.2913 6.6891 21.0623 6.85511C20.8333 7.02112 20.7782 7.34742 20.9382 7.58498C21.2057 8.07157 21.5506 8.50663 21.9588 8.873C23.0347 9.89482 24.4444 10.4587 25.9037 10.4472C26.5933 10.4186 26.5382 9.50269 25.9313 9.3882C24.3147 9.11343 22.8444 8.26334 21.7657 6.98391Z" fill="#422B0D"/>
<defs>
<radialGradient id="paint0_radial_230_1233" cx="0" cy="0" r="1" gradientUnits="userSpaceOnUse" gradientTransform="translate(16 16) scale(15.713 16.3033)">
<stop offset="0.5" stop-color="#FDE030"/>
<stop offset="0.92" stop-color="#F7C02B"/>
<stop offset="1" stop-color="#F4A223"/>
</radialGradient>
</defs>
</svg>
