<svg width="16" height="17" viewBox="0 0 16 17" fill="none" xmlns="http://www.w3.org/2000/svg">
<path d="M14.9983 4.97063C15.0002 4.95639 14.9979 4.94206 14.9969 4.92774C14.9967 4.92603 14.9966 4.92432 14.9966 4.92261C14.9956 4.89752 14.9955 4.87192 14.9973 4.84688C14.9982 4.83454 15 4.82221 15 4.80983V4.80303C15 4.77201 14.9939 4.7413 14.9821 4.71263L14.9646 4.67009C14.955 4.647 14.9442 4.62434 14.9291 4.60443C14.9133 4.58359 14.8954 4.56432 14.8756 4.54692L14.8189 4.49796C14.8074 4.48803 14.7927 4.48257 14.7775 4.48257C14.7658 4.48257 14.7543 4.47933 14.7443 4.47322L11.4932 2.4797L8.40924 0.629655C8.34891 0.583217 8.28121 0.546748 8.20888 0.521619C8.18256 0.512474 8.15469 0.509 8.12683 0.509C8.11064 0.509 8.09449 0.507561 8.07843 0.50553C8.02389 0.498635 7.96871 0.498188 7.91409 0.504189C7.89043 0.506788 7.86671 0.509 7.84291 0.509C7.81157 0.509 7.78021 0.511948 7.74992 0.52002C7.67015 0.541283 7.59356 0.572723 7.52219 0.613568L1.32936 4.35387L1.25475 4.41018L1.18013 4.47453L1.12107 4.51464C1.10525 4.52539 1.09092 4.53818 1.07845 4.5527C1.06344 4.57018 1.0513 4.58995 1.04252 4.61127L1.0335 4.63313C1.01537 4.67712 1.00604 4.72457 1.00604 4.77214C1.00604 4.80427 1.00292 4.83631 1.00098 4.86838C0.99991 4.88608 0.999717 4.90382 1.0004 4.92153C1.00193 4.96147 1.00604 5.00135 1.00604 5.04132V12.0034C1.00576 12.1401 1.04139 12.2746 1.10956 12.3942C1.17774 12.5139 1.27621 12.6147 1.39568 12.6871L7.57755 16.3979C7.60139 16.4122 7.62641 16.4244 7.65233 16.4345L7.70344 16.4543C7.7261 16.4631 7.7502 16.4676 7.77451 16.4676C7.7941 16.4676 7.81352 16.4707 7.83246 16.4757C7.95499 16.5081 8.08421 16.5081 8.20674 16.4757C8.22568 16.4707 8.2451 16.4676 8.26469 16.4676C8.289 16.4676 8.3131 16.4631 8.33576 16.4543L8.38737 16.4343C8.41296 16.4244 8.43768 16.4123 8.46126 16.3983L14.5938 12.7434C14.7133 12.671 14.8117 12.5702 14.8799 12.4505C14.9481 12.3309 14.9837 12.1964 14.9834 12.0597V5.08884C14.9834 5.05485 14.9891 5.02116 14.9954 4.98777C14.9965 4.98205 14.9975 4.97625 14.9983 4.97063ZM7.57112 2.48854C7.81147 2.34445 8.11166 2.34447 8.352 2.48858C8.84359 2.78333 8.84384 3.49564 8.35246 3.79074L5.19325 5.68801C4.95294 5.83233 4.65273 5.8328 4.41197 5.68925C3.91778 5.39459 3.91692 4.67915 4.41041 4.38332L7.57112 2.48854ZM7.13254 12.9158C7.13254 13.5357 6.45791 13.9201 5.92463 13.604L2.96498 11.8497C2.72193 11.7056 2.5729 11.4441 2.5729 11.1615V7.8901C2.5729 7.26832 3.25117 6.88422 3.78439 7.20404L6.74403 8.97922C6.98506 9.12379 7.13254 9.38422 7.13254 9.66528V12.9158ZM8.36679 7.55575C8.11673 7.70435 7.80262 7.70371 7.55146 7.55698C7.02693 7.25056 7.01301 6.48916 7.53339 6.17574L10.6 4.32879C10.8537 4.17596 11.1711 4.17585 11.425 4.32851L11.4573 4.34794C11.9758 4.65976 11.9739 5.41213 11.4537 5.72124L8.36679 7.55575ZM13.3502 11.1415C13.3502 11.4218 13.2035 11.6817 12.9635 11.8265L10.0039 13.6121C9.47068 13.9338 8.79059 13.5498 8.79059 12.9271V9.66528C8.79059 9.38422 8.93808 9.12379 9.1791 8.97922L12.1387 7.20405C12.672 6.88422 13.3502 7.26832 13.3502 7.8901V11.1415Z" fill="#72B6F1"/>
</svg>
