<svg width="16" height="16" viewBox="0 0 16 16" fill="none" xmlns="http://www.w3.org/2000/svg">
<mask id="mask0_12_744" style="mask-type:luminance" maskUnits="userSpaceOnUse" x="0" y="0" width="16" height="16">
<path d="M0.523193 0.523254H15.4767V15.4768H0.523193V0.523254Z" fill="white" stroke="white"/>
</mask>
<g mask="url(#mask0_12_744)">
<path d="M12.0623 7.30594C12.6933 7.35452 13.2809 7.6456 13.7019 8.11809C14.1229 8.59059 14.3445 9.20777 14.3202 9.84014C14.296 10.4725 14.0277 11.0709 13.5717 11.5098C13.1157 11.9486 12.5074 12.1937 11.8746 12.1936M8.83237 5.28242C9.17232 5.09394 9.55649 4.99982 9.94506 5.0098C10.3336 5.01978 10.7125 5.13351 11.0423 5.33919C11.3721 5.54487 11.6409 5.83502 11.8209 6.17956C12.0008 6.52411 12.0853 6.91051 12.0656 7.29871M3.71196 7.1091C3.5834 6.46533 3.69069 5.79679 4.01424 5.22558C4.33779 4.65437 4.856 4.21859 5.47425 3.99784C6.0925 3.77708 6.76953 3.78607 7.3817 4.02316C7.99387 4.26025 8.50034 4.70963 8.80861 5.28923M4.29742 12.1977H11.7259M4.26028 12.1604C3.79148 12.1603 3.33177 12.0311 2.93168 11.7867C2.53158 11.5424 2.20657 11.1925 1.99239 10.7755C1.7782 10.3585 1.68312 9.89056 1.7176 9.42304C1.75208 8.95551 1.91477 8.50654 2.18781 8.12547C2.55369 7.61491 3.09515 7.25736 3.70838 7.12139M7.78999 7.35671V8.87379H9.14047" stroke="#72B6F1" stroke-linecap="round" stroke-linejoin="round"/>
<path d="M10.4173 8.62734C10.4172 9.26299 10.1647 9.87259 9.7152 10.3221C9.26572 10.7715 8.65612 11.0241 8.02046 11.0242C7.54644 11.0242 7.08306 10.8836 6.68892 10.6202C6.29479 10.3569 5.9876 9.98253 5.80621 9.54458C5.62481 9.10664 5.57736 8.62473 5.66984 8.15981C5.76232 7.69489 5.99059 7.26784 6.32578 6.93265C6.66097 6.59746 7.08802 6.36919 7.55294 6.27671C8.01786 6.18423 8.49976 6.23168 8.93771 6.41308C9.37566 6.59448 9.74999 6.90166 10.0134 7.2958C10.2767 7.68993 10.4173 8.15331 10.4173 8.62734Z" stroke="#72B6F1" stroke-linecap="round" stroke-linejoin="round"/>
</g>
</svg>
