<svg width="16" height="16" viewBox="0 0 16 16" fill="none" xmlns="http://www.w3.org/2000/svg">
<path d="M7.99991 14.2607C11.4576 14.2607 14.2606 11.4577 14.2606 8.00003C14.2606 4.54237 11.4576 1.73938 7.99991 1.73938C4.54225 1.73938 1.73926 4.54237 1.73926 8.00003C1.73926 11.4577 4.54225 14.2607 7.99991 14.2607Z" stroke="#72B6F1" stroke-linecap="round" stroke-linejoin="round"/>
<path d="M7.9999 9.39128C8.76827 9.39128 9.39115 8.76839 9.39115 8.00002C9.39115 7.23165 8.76827 6.60876 7.9999 6.60876C7.23153 6.60876 6.60864 7.23165 6.60864 8.00002C6.60864 8.76839 7.23153 9.39128 7.9999 9.39128Z" stroke="#72B6F1" stroke-linecap="round" stroke-linejoin="round"/>
<path d="M8 9.3913V14.2607" stroke="#72B6F1" stroke-linecap="round" stroke-linejoin="round"/>
<path d="M6.60857 8.00002L1.91309 6.60876" stroke="#72B6F1" stroke-linecap="round" stroke-linejoin="round"/>
<path d="M9.39111 8.00002L14.0866 6.60876" stroke="#72B6F1" stroke-linecap="round" stroke-linejoin="round"/>
</svg>
