<svg width="28" height="28" viewBox="0 0 28 28" fill="none" xmlns="http://www.w3.org/2000/svg">
<path d="M13.3919 24.8673C12.4541 24.1325 3.7453 15.8643 3.64796 15.7739C3.26333 15.3984 3.02115 15.0089 2.95467 14.652C2.88582 14.2811 3.00216 13.9566 3.31081 13.6552C3.5981 13.3748 3.94949 13.2264 4.327 13.2264C4.7876 13.2264 5.26008 13.4397 5.65421 13.8268L9.60262 17.5309C9.67147 17.5958 9.76169 17.6283 9.84954 17.6283C9.94214 17.6283 10.0324 17.5935 10.1012 17.5263C10.2389 17.3918 10.2389 17.1739 10.1036 17.0395L3.79991 10.6836C3.16835 10.067 2.87157 9.1236 3.62184 8.39112C3.90913 8.11065 4.26052 7.9623 4.63803 7.9623C5.09863 7.9623 5.57111 8.17555 5.96524 8.56265L12.4137 14.7007C12.4826 14.7656 12.5728 14.8003 12.663 14.8003C12.7533 14.8003 12.8459 14.7656 12.9147 14.6983C13.0524 14.5639 13.0548 14.346 12.9171 14.2092L5.17223 6.45793C4.81372 6.10792 4.59766 5.68836 4.55967 5.2804C4.52406 4.86548 4.67364 4.4807 4.99416 4.16777C5.28145 3.88729 5.63284 3.73894 6.01035 3.73894C6.47096 3.73894 6.94344 3.9522 7.33757 4.33698L15.2367 11.8565C15.3056 11.9214 15.3958 11.9562 15.486 11.9562C15.5763 11.9562 15.6689 11.9214 15.7377 11.8542C15.8754 11.7197 15.8778 11.5018 15.7401 11.3651L10.0039 5.60955C9.64298 5.25722 9.42692 4.83998 9.39131 4.43202C9.35569 4.0171 9.50527 3.63232 9.8258 3.31939C10.1131 3.03891 10.4645 2.89056 10.842 2.89056C11.3026 2.89056 11.7751 3.10382 12.1692 3.49092C14.2728 5.50756 19.7645 10.781 19.9497 10.9757C20.6548 11.4509 20.7973 10.7323 20.8329 10.2664C20.8733 9.72396 20.237 7.83017 20.6073 6.12646C21.2294 3.8618 23.022 4.23267 23.0623 4.25122C24.0453 4.7009 23.8577 5.37312 23.5087 6.7245L23.4731 6.99106C23.1074 8.75736 25.6194 13.9914 25.8046 14.3831C26.7899 16.4878 27.9248 20.7552 24.1664 24.4246C20.047 28.4463 14.9471 26.3856 13.3919 24.8673Z" fill="url(#paint0_radial_230_540)"/>
<path d="M18.677 27.125C16.1508 27.125 14.0021 25.9451 13.1545 25.1269C12.3923 24.5196 7.58208 19.9856 3.66454 16.2745C3.50547 16.1239 3.41287 16.0381 3.40337 16.0265C2.95939 15.5931 2.68397 15.141 2.60562 14.7145C2.5154 14.2301 2.66973 13.792 3.05911 13.4095C3.41525 13.0618 3.85211 12.8787 4.32696 12.8787C4.88492 12.8787 5.44524 13.129 5.90585 13.5811L9.84951 17.2805L3.54346 10.9247C2.81693 10.2153 2.45129 9.04013 3.37013 8.1454C3.72627 7.7977 4.16314 7.61458 4.63799 7.61458C5.19595 7.61458 5.75627 7.86492 6.21688 8.31693L12.6606 14.4503L4.91816 6.7013C4.50503 6.29797 4.25099 5.80424 4.20588 5.31283C4.16077 4.78897 4.34596 4.30914 4.74246 3.92204C5.0986 3.57435 5.53547 3.39123 6.01032 3.39123C6.5659 3.39123 7.12622 3.63925 7.58921 4.09125L15.486 11.6085L9.74979 5.85292C9.33429 5.44727 9.08024 4.95354 9.03751 4.46213C8.9924 3.94059 9.17759 3.46077 9.57409 3.07366C9.93023 2.72597 10.3671 2.54285 10.8419 2.54285C11.3999 2.54285 11.9602 2.79319 12.4208 3.24519L14.1327 4.884C17.1836 7.80465 19.7336 10.2501 20.0066 10.5236C20.1396 10.6279 20.3129 10.6674 20.3865 10.6326C20.434 10.6094 20.4862 10.5028 20.4767 10.2779C20.4625 9.88388 20.4055 9.39479 20.3461 8.87788C20.2274 7.83942 20.104 6.76388 20.2583 6.05458C20.5954 4.82374 21.2579 4.30219 21.7517 4.07735C22.4307 3.77137 23.0884 3.878 23.2142 3.93595C24.4489 4.50154 24.2043 5.44727 23.8672 6.75925L23.8601 6.7917L23.8221 7.0629C23.5751 8.24971 24.843 11.5296 26.1109 14.2023L26.1298 14.2394C26.9775 16.0474 28.5041 20.6856 24.4204 24.6726C22.5423 26.5015 20.51 27.125 18.677 27.125ZM4.32696 13.5741C4.0468 13.5741 3.78088 13.6877 3.56245 13.9009C3.33689 14.1211 3.25854 14.3344 3.30603 14.5894C3.35826 14.8698 3.56957 15.2036 3.8996 15.5282C3.90197 15.5305 3.99694 15.6209 4.16077 15.7739C9.7213 21.0426 13.0785 24.1742 13.6151 24.5961L13.6436 24.6216C14.9542 25.9011 19.8238 28.1727 23.9147 24.1788C27.6826 20.5002 26.2652 16.205 25.4793 14.5268L25.4627 14.492C24.6459 12.7721 22.7893 8.59972 23.1193 6.93541L23.1739 6.58772C23.5395 5.16911 23.5609 4.87241 22.9412 4.58035C22.7584 4.5479 21.4478 4.39259 20.9468 6.21684C20.821 6.79865 20.9421 7.8626 21.0489 8.80138C21.1106 9.3322 21.1676 9.8352 21.1819 10.2548C21.2056 10.9154 20.8851 11.168 20.6904 11.2608C20.2939 11.4485 19.8214 11.2886 19.527 11.0475L19.4961 11.0197C19.3513 10.8667 15.9063 7.56822 13.627 5.38469L11.9127 3.74124C11.3287 3.1687 10.576 3.07366 10.0703 3.56739C9.82339 3.80846 9.7118 4.09126 9.73792 4.40418C9.76641 4.73102 9.94685 5.07176 10.2484 5.36614L15.9965 11.1217C16.2671 11.3906 16.2671 11.831 15.9917 12.0999C15.7282 12.3572 15.2628 12.3618 14.9922 12.1068L7.08824 4.58498C6.50417 4.01476 5.74915 3.91972 5.2458 4.41345C4.99888 4.65452 4.88729 4.93732 4.91341 5.25024C4.94427 5.57708 5.12472 5.92014 5.42387 6.20989L13.1711 13.9658C13.4441 14.2347 13.4418 14.6751 13.1664 14.944C12.9028 15.2013 12.4375 15.206 12.1668 14.951L5.71591 8.81066C5.13184 8.2358 4.37682 8.14308 3.87348 8.63681C3.25854 9.23716 3.58619 9.98123 4.05155 10.4379L10.36 16.7984C10.6306 17.0673 10.6283 17.5054 10.3529 17.772C10.0869 18.0316 9.62633 18.0339 9.35566 17.7812L5.40725 14.0771C5.07486 13.7503 4.6926 13.5741 4.32696 13.5741Z" fill="#EDA600"/>
<path d="M19.382 10.7508C18.0786 13.3493 18.2471 16.9862 20.2035 19.9045C20.4243 20.2986 20.8018 20.1062 20.6095 19.7005C18.2471 14.7656 20.7235 11.2098 20.7235 11.2098L19.382 10.7508Z" fill="#EDA600"/>
<path d="M14.2561 1.00609C14.9732 0.822967 15.7377 0.839193 16.4808 1.00841C17.2192 1.18225 17.9576 1.54849 18.5061 2.14653C19.0427 2.73993 19.3727 3.46083 19.4843 4.21649C19.5887 4.96519 19.4914 5.73708 19.1281 6.37684C19.0854 5.65827 18.9572 4.99764 18.7411 4.38802C18.6295 4.08436 18.4989 3.79461 18.3399 3.52109C18.1832 3.24989 17.998 2.981 17.8009 2.7608C17.3997 2.30879 16.856 1.95646 16.2458 1.68294C15.6332 1.40014 14.966 1.19153 14.2561 1.00609Z" fill="#B0BEC5"/>
<path d="M14.4532 3.20363C14.8497 2.95792 15.346 2.90693 15.8137 2.98806C16.2862 3.06918 16.7373 3.29866 17.0934 3.61623C17.4472 3.93843 17.6989 4.34407 17.8556 4.76594C17.9315 4.97688 17.9695 5.19941 18.0051 5.41498C18.017 5.6375 18.017 5.86003 17.9814 6.08255C17.8176 5.91334 17.6894 5.74413 17.5683 5.57955C17.4282 5.42425 17.319 5.25967 17.1932 5.109C16.9462 4.80999 16.7064 4.53878 16.4476 4.29771C16.1817 4.0636 15.9016 3.8573 15.5763 3.67881C15.2534 3.49569 14.8901 3.34271 14.4532 3.20363Z" fill="#90A4AE"/>
<path d="M0.879538 17.8902C1.21431 18.53 1.56333 19.1234 1.96933 19.6473C2.37295 20.1711 2.83593 20.6162 3.37489 20.9059C3.63606 21.0473 3.94709 21.1702 4.251 21.2629C4.55728 21.3579 4.87543 21.4228 5.20308 21.4669C5.85837 21.5457 6.54691 21.5318 7.27581 21.4228C6.71074 21.9026 5.95572 22.1576 5.18646 22.2133C4.4077 22.2643 3.61707 22.0997 2.90954 21.7103C2.19726 21.3139 1.67492 20.6834 1.34727 20.0135C1.01962 19.339 0.843924 18.6134 0.879538 17.8902Z" fill="#B0BEC5"/>
<path d="M3.12318 17.619C3.35348 18.0084 3.58141 18.3213 3.83071 18.5948C4.07763 18.8683 4.34355 19.0932 4.63321 19.2972C4.92762 19.4942 5.25052 19.668 5.60191 19.8419C5.77761 19.93 5.96517 19.9995 6.15037 20.1015C6.34268 20.1826 6.53737 20.2684 6.74156 20.3913C6.5255 20.4701 6.30469 20.5164 6.07914 20.5512C5.85596 20.5605 5.62565 20.5721 5.39772 20.5419C4.94186 20.4817 4.486 20.3264 4.08713 20.0552C3.69537 19.7793 3.3701 19.3968 3.19203 18.9634C3.01158 18.5322 2.95935 18.0501 3.12318 17.619Z" fill="#90A4AE"/>
<defs>
<radialGradient id="paint0_radial_230_540" cx="0" cy="0" r="1" gradientUnits="userSpaceOnUse" gradientTransform="translate(9.71568 8.77124) rotate(-44.3127) scale(21.353 21.3469)">
<stop offset="0.3533" stop-color="#FFCA28"/>
<stop offset="0.8723" stop-color="#FFB300"/>
</radialGradient>
</defs>
</svg>
