<svg width="34" height="36" viewBox="0 0 34 36" fill="none" xmlns="http://www.w3.org/2000/svg">
<path d="M32 24.3098V11.5595C31.9994 11.0005 31.8451 10.4515 31.5526 9.96753C31.26 9.48358 30.8396 9.0817 30.3333 8.80221L18.6667 2.42705C18.1599 2.14729 17.5851 2 17 2C16.4149 2 15.8401 2.14729 15.3333 2.42705L3.66667 8.80221C3.16044 9.0817 2.73997 9.48358 2.44744 9.96753C2.1549 10.4515 2.0006 11.0005 2 11.5595V24.3098C2.0006 24.8687 2.1549 25.4178 2.44744 25.9017C2.73997 26.3856 3.16044 26.7875 3.66667 27.067L15.3333 33.4422C15.8401 33.7219 16.4149 33.8692 17 33.8692C17.5851 33.8692 18.1599 33.7219 18.6667 33.4422L30.3333 27.067C30.8396 26.7875 31.26 26.3856 31.5526 25.9017C31.8451 25.4178 31.9994 24.8687 32 24.3098Z" fill="#E76941" stroke="#44BBA4" stroke-width="3.88539" stroke-linecap="round" stroke-linejoin="round"/>
<path d="M2.44998 9.90198L17 17.9506L31.55 9.90198" fill="#E76941"/>
<path d="M2.44998 9.90198L17 17.9506L31.55 9.90198" stroke="#44BBA4" stroke-width="3.88539" stroke-linecap="round" stroke-linejoin="round"/>
<path d="M17 34V17.9346" stroke="#44BBA4" stroke-width="3.88539" stroke-linecap="round" stroke-linejoin="round"/>
</svg>
