<svg width="16" height="16" viewBox="0 0 16 16" fill="none" xmlns="http://www.w3.org/2000/svg">
<path d="M13.2 12.2778V4.94444H2.8V12.2778H13.2ZM13.2 2.5C13.5448 2.5 13.8754 2.62877 14.1192 2.85798C14.363 3.08719 14.5 3.39807 14.5 3.72222V12.2778C14.5 12.6019 14.363 12.9128 14.1192 13.142C13.8754 13.3712 13.5448 13.5 13.2 13.5H2.8C2.45522 13.5 2.12456 13.3712 1.88076 13.142C1.63696 12.9128 1.5 12.6019 1.5 12.2778V3.72222C1.5 3.39807 1.63696 3.08719 1.88076 2.85798C2.12456 2.62877 2.45522 2.5 2.8 2.5H13.2ZM8.65 11.0556V9.83333H11.9V11.0556H8.65ZM6.427 8.61111L3.8205 6.16667H5.66L7.805 8.18333C8.0585 8.42167 8.0585 8.81278 7.805 9.05111L5.673 11.0556H3.8335L6.427 8.61111Z" fill="#44BBA4"/>
</svg>
