<svg width="16" height="16" viewBox="0 0 16 16" fill="none" xmlns="http://www.w3.org/2000/svg">
<path d="M4.06933 3.77919C4.45817 4.10744 4.60412 4.08253 5.3349 4.03161L12.2231 3.60207C12.369 3.60207 12.2476 3.4504 12.1991 3.42549L11.0545 2.56586C10.8355 2.38928 10.5431 2.1867 9.98332 2.23707L3.31405 2.74299C3.07115 2.7679 3.02215 2.89465 3.1191 2.9954L4.06933 3.77919ZM4.48267 5.44752V12.9788C4.48267 13.3835 4.67709 13.5351 5.11546 13.5097L12.6854 13.0547C13.1238 13.0298 13.1728 12.7513 13.1728 12.4226V4.94161C13.1728 4.61336 13.0513 4.43623 12.7829 4.46115L4.87204 4.94161C4.58014 4.96707 4.48267 5.11927 4.48267 5.44752ZM11.9557 5.85106C12.0042 6.07856 11.9557 6.30606 11.7368 6.33206L11.3719 6.4079V11.9676C11.055 12.1447 10.7631 12.246 10.5197 12.246C10.1298 12.246 10.0323 12.1192 9.74042 11.7406L7.3547 7.84819V11.6138L8.10946 11.7915C8.10946 11.7915 8.10946 12.2465 7.50065 12.2465L5.82121 12.3473C5.77274 12.2465 5.82121 11.9936 5.99166 11.9432L6.4295 11.817V6.83744L5.82226 6.78652C5.77326 6.55902 5.89523 6.23077 6.2356 6.20531L8.03701 6.07911L10.5202 10.0219V6.53356L9.88689 6.45827C9.83842 6.17986 10.0328 5.97781 10.2763 5.9529L11.9557 5.85106ZM2.75424 2.06049L9.69195 1.52966C10.5437 1.45382 10.7631 1.5042 11.2984 1.90882L13.5132 3.52624C13.878 3.80411 14 3.87994 14 4.18328V13.0547C14 13.6104 13.8056 13.9398 13.1243 13.9896L5.06698 14.4955C4.55616 14.521 4.31222 14.4451 4.04431 14.0909L2.41334 11.8917C2.12145 11.4871 2 11.1843 2 10.8301V2.94449C2 2.49003 2.19494 2.11032 2.75424 2.06049Z" fill="#72B6F1"/>
</svg>
