<svg width="16" height="13" viewBox="0 0 16 13" fill="none" xmlns="http://www.w3.org/2000/svg">
<path d="M15.8929 6.07339C15.3811 5.12225 12.5662 0.349417 7.78409 0.503656C3.36184 0.623619 0.802861 4.78806 0.107137 6.07339C0.0369504 6.20365 0 6.35141 0 6.50183C0 6.65224 0.0369504 6.80001 0.107137 6.93027C0.610937 7.86427 3.30587 12.5 8.01599 12.5H8.21591C12.6382 12.38 15.2051 8.21559 15.8929 6.93027C15.963 6.80001 16 6.65224 16 6.50183C16 6.35141 15.963 6.20365 15.8929 6.07339ZM8.17593 10.7862C4.7293 10.8719 2.48219 7.71003 1.77847 6.50183C2.57815 5.12225 4.66533 2.30311 7.86405 2.21742C11.2947 2.12316 13.5498 5.29362 14.2615 6.50183C13.4378 7.88141 11.3747 10.7005 8.17593 10.7862Z" fill="#696975"/>
<path d="M8.00006 3.50248C7.44649 3.50248 6.90536 3.67837 6.44508 4.00792C5.98481 4.33746 5.62607 4.80585 5.41423 5.35387C5.20238 5.90188 5.14696 6.50489 5.25495 7.08666C5.36295 7.66842 5.62952 8.20281 6.02095 8.62224C6.41238 9.04167 6.91109 9.32731 7.45402 9.44303C7.99696 9.55875 8.55972 9.49935 9.07115 9.27236C9.58258 9.04537 10.0197 8.66097 10.3273 8.16777C10.6348 7.67457 10.7989 7.09473 10.7989 6.50157C10.7989 5.70616 10.5041 4.94333 9.97917 4.38089C9.45428 3.81845 8.74237 3.50248 8.00006 3.50248ZM8.00006 7.78689C7.76282 7.78689 7.5309 7.71151 7.33364 7.57027C7.13638 7.42904 6.98263 7.2283 6.89185 6.99344C6.80106 6.75858 6.7773 6.50014 6.82359 6.25081C6.86987 6.00148 6.98411 5.77246 7.15187 5.59271C7.31963 5.41295 7.53336 5.29053 7.76605 5.24094C7.99873 5.19135 8.23991 5.2168 8.4591 5.31408C8.67828 5.41137 8.86562 5.57611 8.99743 5.78748C9.12923 5.99885 9.19958 6.24735 9.19958 6.50157C9.19958 6.84245 9.07321 7.16938 8.84825 7.41043C8.6233 7.65147 8.31819 7.78689 8.00006 7.78689Z" fill="#696975"/>
</svg>
