<svg width="16" height="16" viewBox="0 0 16 16" fill="none" xmlns="http://www.w3.org/2000/svg">
<path d="M11.4333 13.8L7.4 9.73333C7.17778 9.82222 6.95289 9.88889 6.72533 9.93333C6.49778 9.97778 6.256 10 6 10C4.88889 10 3.94444 9.61111 3.16667 8.83333C2.38889 8.05556 2 7.11111 2 6C2 5.6 2.05556 5.21956 2.16667 4.85867C2.27778 4.49778 2.43333 4.156 2.63333 3.83333L5.06667 6.26667L6.26667 5.06667L3.83333 2.63333C4.15556 2.43333 4.49733 2.27778 4.85867 2.16667C5.22 2.05556 5.60044 2 6 2C7.11111 2 8.05556 2.38889 8.83333 3.16667C9.61111 3.94444 10 4.88889 10 6C10 6.25556 9.97778 6.49733 9.93333 6.72533C9.88889 6.95333 9.82222 7.17822 9.73333 7.4L13.8 11.4333C13.9333 11.5667 14 11.7278 14 11.9167C14 12.1056 13.9333 12.2667 13.8 12.4L12.4 13.8C12.2667 13.9333 12.1056 14 11.9167 14C11.7278 14 11.5667 13.9333 11.4333 13.8ZM11.9167 12.3833L12.3667 11.9333L8.1 7.66667C8.3 7.44444 8.44444 7.18622 8.53333 6.892C8.62222 6.59778 8.66667 6.30044 8.66667 6C8.66667 5.33333 8.45289 4.75289 8.02533 4.25867C7.59778 3.76444 7.06711 3.46711 6.43333 3.36667L7.66667 4.6C7.8 4.73333 7.86667 4.88889 7.86667 5.06667C7.86667 5.24444 7.8 5.4 7.66667 5.53333L5.53333 7.66667C5.4 7.8 5.24444 7.86667 5.06667 7.86667C4.88889 7.86667 4.73333 7.8 4.6 7.66667L3.36667 6.43333C3.46667 7.06667 3.764 7.59733 4.25867 8.02533C4.75333 8.45333 5.33378 8.66711 6 8.66667C6.28889 8.66667 6.57778 8.62222 6.86667 8.53333C7.15556 8.44444 7.41667 8.30556 7.65 8.11667L11.9167 12.3833Z" fill="#30303B"/>
</svg>
